<?xml version="1.0" standalone="no"?>
<!DOCTYPE svg PUBLIC "-//W3C//DTD SVG 20010904//EN"
 "http://www.w3.org/TR/2001/REC-SVG-20010904/DTD/svg10.dtd">
<svg version="1.0" xmlns="http://www.w3.org/2000/svg"
 width="500.000000pt" height="500.000000pt" viewBox="0 0 500.000000 500.000000"
 preserveAspectRatio="xMidYMid meet">

<g transform="translate(0.000000,500.000000) scale(0.100000,-0.100000)"
fill="#000000" stroke="none">
<path d="M0 2500 l0 -2500 2500 0 2500 0 0 2500 0 2500 -2500 0 -2500 0 0
-2500z m2520 0 c0 -1993 0 -2000 -20 -2000 -20 0 -20 7 -20 2000 0 1993 0
2000 20 2000 20 0 20 -7 20 -2000z m-460 850 l0 -150 -660 0 -660 0 0 150 0
150 660 0 660 0 0 -150z m140 -955 l0 -775 -240 0 -240 0 0 165 c0 103 4 165
10 165 20 0 10 78 -18 131 -71 136 -264 202 -433 149 -119 -37 -198 -119 -218
-224 -7 -37 -6 -49 5 -53 11 -4 14 -39 14 -169 l0 -164 -240 0 -240 0 0 775 0
775 800 0 800 0 0 -775z m2102 308 c-4 -100 -7 -113 -22 -113 -15 0 -19 12
-25 63 -14 114 -1 107 -180 107 l-155 0 0 -190 0 -190 144 0 143 0 5 50 c6 55
11 66 27 55 7 -4 11 -53 11 -131 0 -103 -3 -124 -15 -124 -15 0 -22 20 -27 75
l-3 30 -142 3 -143 3 0 -201 0 -200 70 0 c56 0 70 -3 70 -15 0 -13 -26 -15
-175 -15 -146 0 -175 2 -175 14 0 10 14 16 43 18 l42 3 0 415 0 415 -43 3
c-28 2 -42 7 -39 15 3 9 83 13 298 17 162 3 295 5 295 5 1 0 -1 -51 -4 -112z
m-1252 92 c0 -11 -11 -15 -36 -15 -29 0 -34 -3 -30 -17 3 -10 55 -164 115
-343 103 -307 109 -323 121 -295 20 51 220 638 220 647 0 4 -16 8 -36 8 -24 0
-34 4 -32 13 3 8 35 13 101 15 82 2 97 0 97 -13 0 -10 -10 -15 -27 -15 -16 0
-33 -4 -39 -8 -6 -4 -77 -198 -157 -432 -144 -423 -145 -425 -173 -425 -27 0
-28 3 -169 414 -78 228 -147 423 -154 433 -7 11 -23 18 -41 18 -20 0 -30 5
-30 15 0 13 22 15 135 15 113 0 135 -2 135 -15z m-1509 -602 c61 -27 128 -88
150 -138 37 -80 57 -75 -291 -75 -305 0 -310 0 -310 20 0 50 74 145 142 181
82 44 225 50 309 12z m-381 -408 l0 -165 -25 0 -25 0 0 165 0 165 25 0 25 0 0
-165z m448 -2 l2 -163 -35 0 -35 0 0 135 0 135 -140 0 -140 0 0 -135 0 -135
-35 0 -35 0 0 158 c0 87 3 162 7 166 4 3 97 5 207 4 l201 -3 3 -162z m82 2 l0
-165 -25 0 -25 0 0 165 0 165 25 0 25 0 0 -165z m-180 -45 l0 -120 -110 0
-110 0 0 120 0 120 110 0 110 0 0 -120z m788 -197 l3 -43 -900 0 -901 0 0 45
0 45 898 -2 897 -3 3 -42z"/>
<path d="M960 3423 c-10 -29 -17 -33 -46 -33 l-35 0 21 -28 c20 -28 21 -31 6
-67 -9 -20 -16 -39 -16 -41 0 -2 20 6 44 18 l44 21 37 -21 c20 -12 38 -22 40
-22 2 0 -3 20 -13 45 -16 44 -16 45 8 70 l23 25 -34 0 c-30 0 -38 5 -51 33
l-16 32 -12 -32z"/>
<path d="M1811 3422 c-12 -27 -19 -32 -49 -32 l-35 0 23 -25 c24 -25 24 -26 8
-70 l-17 -44 43 21 42 20 42 -21 41 -21 -16 46 c-15 44 -15 46 8 70 l22 24
-34 0 c-30 0 -38 5 -50 32 l-15 31 -13 -31z"/>
<path d="M1382 3415 c-9 -19 -19 -25 -42 -25 -35 0 -38 -10 -10 -35 18 -16 18
-20 5 -52 -22 -52 -19 -56 25 -32 l40 23 40 -23 c22 -12 40 -20 40 -18 0 3 -6
22 -14 44 -12 36 -12 41 6 63 l20 25 -31 3 c-22 2 -35 11 -43 28 -14 30 -22
30 -36 -1z"/>
<path d="M720 2930 l0 -90 90 0 90 0 0 90 0 90 -90 0 -90 0 0 -90z"/>
<path d="M1020 2930 l0 -90 85 0 85 0 0 90 0 90 -85 0 -85 0 0 -90z"/>
<path d="M1310 2930 l0 -90 90 0 90 0 0 90 0 90 -90 0 -90 0 0 -90z"/>
<path d="M1600 2930 l0 -90 90 0 90 0 0 90 0 90 -90 0 -90 0 0 -90z"/>
<path d="M1900 2930 l0 -90 90 0 90 0 0 90 0 90 -90 0 -90 0 0 -90z"/>
<path d="M720 2670 l0 -90 90 0 90 0 0 90 0 90 -90 0 -90 0 0 -90z"/>
<path d="M1020 2670 l0 -90 85 0 85 0 0 90 0 90 -85 0 -85 0 0 -90z"/>
<path d="M1310 2670 l0 -90 90 0 90 0 0 90 0 90 -90 0 -90 0 0 -90z"/>
<path d="M1600 2670 l0 -90 90 0 90 0 0 90 0 90 -90 0 -90 0 0 -90z"/>
<path d="M1900 2670 l0 -90 90 0 90 0 0 90 0 90 -90 0 -90 0 0 -90z"/>
<path d="M720 2415 l0 -85 90 0 90 0 0 85 0 85 -90 0 -90 0 0 -85z"/>
<path d="M1020 2415 l0 -85 85 0 85 0 0 85 0 85 -85 0 -85 0 0 -85z"/>
<path d="M1310 2415 l0 -85 90 0 90 0 0 85 0 85 -90 0 -90 0 0 -85z"/>
<path d="M1600 2415 l0 -85 90 0 90 0 0 85 0 85 -90 0 -90 0 0 -85z"/>
<path d="M1900 2415 l0 -85 90 0 90 0 0 85 0 85 -90 0 -90 0 0 -85z"/>
<path d="M720 1960 l0 -210 135 0 135 0 0 210 0 210 -135 0 -135 0 0 -210z"/>
<path d="M1810 1960 l0 -210 135 0 135 0 0 210 0 210 -135 0 -135 0 0 -210z"/>
</g>
</svg>
